<svg xmlns="http://www.w3.org/2000/svg" width="160" height="160" viewBox="0 0 160 160" fill="none">
<rect width="160" height="160" fill="none"/>
<path d="M34 112 C56.226122695952654 49.16865633055568, 108.20973225310445 29.98558960482478, 129.57645555213094 33.085956912487745 C128.10993095114827 82.4769428782165, 90.5096743889153 122.49242733046412, 32.39581449702382 108.36158583685756 C34 112, 34 112, 34 112" stroke="none" stroke-width="0" stroke-linecap="round" stroke-linejoin="round" fill="#e9f0dc"/>
<path d="M34 112 C54.73213679715991 44.97533570602536, 103.62986555024982 27.239976108819246, 129.60291314050556 35.02020534351468 M33.28674881383777 113.05199276283383 C54.058420820571484 48.11142980601639, 105.54816621694714 27.05145825531334, 133.7740529647842 34.03066309835762 M132 36 C125.67652478143573 81.92772468402981, 92.79822280332446 127.41293927505612, 35.166471504420045 109.94598985984922 M132.79174623414875 36.78246859386563 C126.43824858818203 84.0576001348719, 93.05611040148884 128.30519026782363, 33.24271866116673 110.71249317910522 M34 112 C34 112, 34 112, 34 112 M34 112 C34 112, 34 112, 34 112" stroke="#617656" stroke-width="2" stroke-linecap="round" stroke-linejoin="round" fill="none"/>
<path d="M45 105L126 42" stroke="#617656" stroke-width="2" stroke-linecap="round" opacity="0.45"/>
</svg>