<svg xmlns="http://www.w3.org/2000/svg" width="160" height="160" viewBox="0 0 160 160" fill="none">
<rect width="160" height="160" fill="none"/>
<path d="M38 98 C16.672877699136734 92.47941502928734, 19.842878729104996 67.59913262724876, 34.6712421476841 61.52971085906029 C44.293445974588394 44.93063935637474, 72.89237156510353 43.66781911253929, 85.73104992508888 55.510933965444565 C98.68028011918068 41.80163297057152, 132.6251224577427 55.286157697439194, 127.29638138413429 83.62579354643822 C144.5531066954136 87.01329430937767, 144.72960796952248 104.90629681944847, 122.11821308732033 108.26393803954124 C100.2739031419158 113.40712739798427, 77.03696196377277 111.50748731467128, 42.1109639108181 108.33893910050392 C35.12081536650658 110.87855663895607, 30.807519048452377 105.75198784470558, 34.92932042479515 97.22622528672218 C38 98, 38 98, 38 98" stroke="none" stroke-width="0" stroke-linecap="round" stroke-linejoin="round" fill="#8aa4aa"/>
<path d="M38 98 C19.673010486364365 94.28918729424477, 19.359880489110946 67.991089874506, 35.60258945822716 61.795738083124164 M40.2993322789669 98.66843801140786 C19.194151840507985 96.34349316090345, 16.678369970619677 68.23685178250075, 38.65693596869707 62.55614497631788 M38 64 C40.912466472387315 43.26908860802651, 69.77619804739952 42.05594602227211, 80.63686355948448 56.44087987542152 M35.770441097021106 61.76219430565834 C43.30955430060625 40.455644564330576, 72.01876480132341 40.5157246825099, 79.79352769881487 57.77554949253798 M82 58 C98.34522690176964 41.24777532219887, 133.36257786154746 54.59595475792885, 125.43143429160118 83.16468988060952 M83.33211998343468 59.96372037529945 C102.2322178080678 42.98581324070692, 130.27094216376543 55.049187121093276, 126.39817149192095 81.49608651608229 M126 82 C145.82734646201135 82.24106774926186, 147.7813246190548 107.12068639397621, 125.83610634207726 110.68923841118813 M127.05292362570762 80.4763365328312 C144.44535525351762 81.34344254940748, 146.43530244857072 105.84449495762587, 125.88689273864031 114.19938690632581 M122.92103620171547 114.13849300742149 C103.45247704833746 112.63239876945615, 88.07264470160007 111.27074582298398, 42.010233932733534 111.60216698050499 M123.54686157405376 112.15504114925861 C96.76673634499312 111.5898177044809, 66.94278482198715 112.50374201707244, 42.63243696391582 112.36468518078327 M42 112 C34.55431827902794 114.29764695763588, 28.916292041540146 102.33313718438148, 37.43672317862511 100.0645554125309 M43.26502727866173 110.53176828026771 C33.43772294074297 112.16407260388137, 26.748661957085133 106.02133045643568, 36.83465532332659 99.96711229771375 M38 98 C38 98, 38 98, 38 98 M38 98 C38 98, 38 98, 38 98" stroke="#969e9f" stroke-width="2" stroke-linecap="round" stroke-linejoin="round" fill="none"/>
</svg>