<svg xmlns="http://www.w3.org/2000/svg" width="220" height="160" viewBox="0 0 220 160" fill="none">
<rect width="220" height="160" fill="none"/>
<path d="M24 28L38 24" stroke="#7b7667" stroke-width="2" stroke-linecap="round" opacity="0.42"/>
<path d="M62 28L76 24" stroke="#7b7667" stroke-width="2" stroke-linecap="round" opacity="0.42"/>
<path d="M100 28L114 24" stroke="#7b7667" stroke-width="2" stroke-linecap="round" opacity="0.42"/>
<path d="M138 28L152 24" stroke="#7b7667" stroke-width="2" stroke-linecap="round" opacity="0.42"/>
<path d="M176 28L190 24" stroke="#7b7667" stroke-width="2" stroke-linecap="round" opacity="0.42"/>
<path d="M24 52L38 48" stroke="#7b7667" stroke-width="2" stroke-linecap="round" opacity="0.42"/>
<path d="M62 52L76 48" stroke="#7b7667" stroke-width="2" stroke-linecap="round" opacity="0.42"/>
<path d="M100 52L114 48" stroke="#7b7667" stroke-width="2" stroke-linecap="round" opacity="0.42"/>
<path d="M138 52L152 48" stroke="#7b7667" stroke-width="2" stroke-linecap="round" opacity="0.42"/>
<path d="M176 52L190 48" stroke="#7b7667" stroke-width="2" stroke-linecap="round" opacity="0.42"/>
<path d="M24 76L38 72" stroke="#7b7667" stroke-width="2" stroke-linecap="round" opacity="0.42"/>
<path d="M62 76L76 72" stroke="#7b7667" stroke-width="2" stroke-linecap="round" opacity="0.42"/>
<path d="M100 76L114 72" stroke="#7b7667" stroke-width="2" stroke-linecap="round" opacity="0.42"/>
<path d="M138 76L152 72" stroke="#7b7667" stroke-width="2" stroke-linecap="round" opacity="0.42"/>
<path d="M176 76L190 72" stroke="#7b7667" stroke-width="2" stroke-linecap="round" opacity="0.42"/>
<path d="M24 100L38 96" stroke="#7b7667" stroke-width="2" stroke-linecap="round" opacity="0.42"/>
<path d="M62 100L76 96" stroke="#7b7667" stroke-width="2" stroke-linecap="round" opacity="0.42"/>
<path d="M100 100L114 96" stroke="#7b7667" stroke-width="2" stroke-linecap="round" opacity="0.42"/>
<path d="M138 100L152 96" stroke="#7b7667" stroke-width="2" stroke-linecap="round" opacity="0.42"/>
<path d="M176 100L190 96" stroke="#7b7667" stroke-width="2" stroke-linecap="round" opacity="0.42"/>
<path d="M24 124L38 120" stroke="#7b7667" stroke-width="2" stroke-linecap="round" opacity="0.42"/>
<path d="M62 124L76 120" stroke="#7b7667" stroke-width="2" stroke-linecap="round" opacity="0.42"/>
<path d="M100 124L114 120" stroke="#7b7667" stroke-width="2" stroke-linecap="round" opacity="0.42"/>
<path d="M138 124L152 120" stroke="#7b7667" stroke-width="2" stroke-linecap="round" opacity="0.42"/>
<path d="M176 124L190 120" stroke="#7b7667" stroke-width="2" stroke-linecap="round" opacity="0.42"/>
</svg>